<svg width="31" height="31" xmlns="http://www.w3.org/2000/svg">
  <path stroke="#F6F8F7" d="M30.49 18.86l-1.09-1.54-.04-.06-4.07-5.8a6.52 6.52 0 10-9.69-8.58 6.53 6.53 0 00-10.68 7.48c-.2.05-.4.1-.6.18-.57.2-1.1.47-1.6.81a6.52 6.52 0 006.93 11.03l4.1 5.8.03.06 1.09 1.55a2.76 2.76 0 001.84 1.17c.8.11 1.62 0 2.36-.34A32.59 32.59 0 0025 27.34a28.94 28.94 0 004.83-4.26c.57-.58.95-1.32 1.12-2.1.14-.75-.03-1.5-.46-2.12zm-15.98 8.19l-4.14-5.9a.64.64 0 00-.9-.17 5.25 5.25 0 11-3.33-9.51.64.64 0 00.42-1.1 5.43 5.43 0 01-.48-.58 5.23 5.23 0 118.99-5.35.64.64 0 001.16-.03 5.24 5.24 0 117.8 6.39s0 0 0 0c-.28.2-.35.6-.15.9l4.14 5.9a44.63 44.63 0 01-13.51 9.45zm15.17-6.3a3.1 3.1 0 01-.8 1.48 27.65 27.65 0 01-4.62 4.07 31.28 31.28 0 01-5.7 3.15c-.5.23-1.07.32-1.63.25-.4-.06-.77-.3-1-.63l-.67-.95a45.92 45.92 0 0013.52-9.45l.66.93c.23.34.32.75.24 1.15z" fill="#F6F8F7"/>
</svg>
