<svg width="32" height="32" xmlns="http://www.w3.org/2000/svg">
  <path d="M31.8 14.67c-.46-1.07-1.62-1.52-2.58-1l-1.23.67c.88-.5 1.5-1.51 1.5-2.69 0-1.6-1.15-2.92-2.57-3a6.3 6.3 0 00-2.87-2.83 13.89 13.89 0 00-4.76-1.34 3.65 3.65 0 00-3.19-2.03h-.66c-1.34 0-2.56.8-3.22 2.1-.52.07-1.02.16-1.5.27.68-2.23 2.56-3.77 4.72-3.77h.66c1.76 0 3.35 1 4.26 2.69.14.24.43.32.65.17.22-.15.3-.47.16-.72A5.86 5.86 0 0016.1 0h-.66c-2.76 0-5.14 2.13-5.76 5.11-.67.21-1.28.47-1.82.76a6.09 6.09 0 00-2.78 2.78c-1.42.08-2.56 1.4-2.56 3 0 1.17.6 2.19 1.47 2.68l-1.2-.66a1.74 1.74 0 00-1.48-.1 2 2 0 00-1.11 1.1c-.23.51-.26 1.1-.1 1.64.17.55.52.99.99 1.24L3 18.6c.53.29 1.1.46 1.69.5v6.14c0 2.66 1.73 4.9 4.07 5.31A2.3 2.3 0 0010.84 32c.88 0 1.65-.56 2.04-1.38h1.08A2.29 2.29 0 0016 32c.89 0 1.66-.56 2.04-1.38h1.08A2.29 2.29 0 0021.16 32c1.27 0 2.3-1.15 2.3-2.57 0-1.11-.81-4.47-2.3-4.47-2 0-2.3 4.56-2.3 4.6h-.56c0-.04-.47-4.6-2.3-4.6-1.83 0-2.3 4.56-2.3 4.6h-.57c0-.04-.55-4.6-2.3-4.6-1.47 0-2.29 3.36-2.29 4.47-1.69-.48-2.9-2.2-2.9-4.2V14.67h7.55c.26 0 .47-.23.47-.52 0-.3-.21-.53-.47-.53H5.21c-.97 0-1.75-.88-1.75-1.96S4.24 9.7 5.2 9.7h21.58c.97 0 1.75.87 1.75 1.95s-.78 1.96-1.75 1.96H15.1c-.27 0-.48.24-.48.53 0 .29.21.52.47.52h11.29v10.58c0 1.48-.67 2.84-1.79 3.64-.21.16-.27.48-.14.73.2.36.57.21.65.15a5.54 5.54 0 002.21-4.52v-6.15c.59-.03 1.17-.2 1.7-.49l1.92-1.05c.95-.52 1.35-1.81.88-2.88zM20.3 27.24c.38-.98.73-1.24.86-1.24s.48.26.87 1.24c.32.83.5 1.75.5 2.2 0 .83-.62 1.51-1.37 1.51-.75 0-1.36-.68-1.36-1.52 0-.44.18-1.36.5-2.19zm-5.16 0c.38-.98.73-1.24.86-1.24s.48.26.86 1.24c.33.83.5 1.75.5 2.2 0 .83-.6 1.51-1.36 1.51-.75 0-1.36-.68-1.36-1.52 0-.44.17-1.36.5-2.19zm-5.16 0c.38-.98.73-1.24.86-1.24s.48.26.86 1.24c.33.83.5 1.75.5 2.2 0 .83-.61 1.51-1.36 1.51-.75 0-1.36-.68-1.36-1.52 0-.44.17-1.36.5-2.19zm-5.28-9.2a3.22 3.22 0 01-1.28-.38L1.5 16.61a1.07 1.07 0 01-.5-.64c-.1-.28-.08-.58.04-.84.12-.27.32-.47.57-.57a.9.9 0 01.76.06S4.2 15.67 4.7 15.8v2.24zM15.44 3.5h.66c.73 0 1.41.31 1.92.86a29.7 29.7 0 00-4.53.03c.51-.56 1.2-.9 1.95-.9zM6.18 8.65A5.5 5.5 0 018.27 6.8c1.81-.98 4.41-1.47 7.73-1.47 6.48 0 8.9 1.87 9.82 3.3H6.18zM30.5 16.6l-1.92 1.05c-.4.22-.83.35-1.28.39V15.8c.6-.12 2.33-1.2 2.33-1.2.5-.26 1.1-.04 1.33.52.24.55.04 1.21-.46 1.48z" fill="#9AC1B0"/>
  <path d="M17.22 17.33h-2.44c-.5 0-.91.51-.91 1.14V20c0 1.47.95 2.67 2.13 2.67s2.13-1.2 2.13-2.67v-1.53c0-.63-.4-1.14-.9-1.14zM16 21.54c-.68 0-1.23-.69-1.23-1.54v-1.54h2.45l.01 1.54c0 .85-.55 1.54-1.23 1.54zM20.8 17.33c-.3 0-.53.17-.53.37v.6c0 .2.24.37.53.37.3 0 .53-.17.53-.37v-.6c0-.2-.24-.37-.53-.37zM11.2 17.33c-.3 0-.53.17-.53.37v.6c0 .2.24.37.53.37.3 0 .53-.17.53-.37v-.6c0-.2-.24-.37-.53-.37z" fill="#9AC1B0"/>
</svg>
